<svg width="155" height="126" viewBox="0 0 155 126" fill="none" xmlns="http://www.w3.org/2000/svg">
<g filter="url(#filter0_d_537_17)">
<path d="M4 0H150.5V86H4.5L4 0Z" fill="#546C6E"/>
<rect x="51" y="84" width="5" height="16" rx="1" fill="#546C6E"/>
<rect x="99" y="84" width="5" height="16" rx="1" fill="#546C6E"/>
<rect x="4" y="111.632" width="53" height="3" rx="1" transform="rotate(-16.0256 4 111.632)" fill="#546C6E"/>
<rect x="148.841" y="117.847" width="53" height="3" rx="1" transform="rotate(-160.117 148.841 117.847)" fill="#546C6E"/>
<rect x="56" y="90" width="43" height="4" fill="#546C6E"/>
<rect x="6" y="2" width="142" height="82" fill="#585858"/>
</g>
<path d="M32.1952 33.32L31.5352 33.46C31.4952 32.34 31.1018 31.5 30.3552 30.94C29.6085 30.3667 28.7685 30.08 27.8352 30.08C26.5818 30.08 25.5218 30.56 24.6552 31.52C23.7885 32.4667 23.3552 33.7067 23.3552 35.24C23.3552 36.76 23.7618 38.0467 24.5752 39.1C25.4018 40.1533 26.4952 40.68 27.8552 40.68C28.4018 40.68 28.9152 40.6067 29.3952 40.46C29.8752 40.3 30.2885 40.1267 30.6352 39.94C30.9152 39.7933 31.1485 39.6533 31.3352 39.52C31.5218 39.3867 31.6485 39.2933 31.7152 39.24L32.1752 39.84C31.7085 40.1867 31.2018 40.48 30.6552 40.72C30.1085 40.96 29.5552 41.1333 28.9952 41.24C28.8085 41.2667 28.6218 41.2867 28.4352 41.3C28.2618 41.3267 28.0818 41.34 27.8952 41.34C26.2418 41.34 24.9285 40.7533 23.9552 39.58C22.9818 38.4067 22.4952 36.9667 22.4952 35.26C22.4952 33.4333 23.0285 32 24.0952 30.96C25.1618 29.92 26.4018 29.4 27.8152 29.4C28.1752 29.4 28.6218 29.4533 29.1552 29.56C29.6885 29.6667 30.2618 29.9533 30.8752 30.42C30.8885 30.42 30.8952 30.4267 30.8952 30.44C30.9085 30.4533 30.9285 30.46 30.9552 30.46C30.9685 30.4733 30.9885 30.4867 31.0152 30.5C31.0552 30.5133 31.0952 30.52 31.1352 30.52C31.1618 30.52 31.1818 30.52 31.1952 30.52C31.2218 30.5067 31.2485 30.4933 31.2752 30.48C31.3418 30.44 31.4018 30.36 31.4552 30.24C31.5085 30.12 31.5352 29.96 31.5352 29.76V29.7L32.1752 29.84L32.1552 29.94C32.0752 30.3533 32.0218 30.6867 31.9952 30.94C31.9818 31.18 31.9752 31.3867 31.9752 31.56C31.9752 31.9067 31.9885 32.2067 32.0152 32.46C32.0418 32.7133 32.0885 32.96 32.1552 33.2C32.1685 33.2267 32.1752 33.2467 32.1752 33.26C32.1885 33.2733 32.1952 33.2933 32.1952 33.32ZM44.2873 36.8C44.2873 38.04 43.9007 39.0267 43.1273 39.76C42.3673 40.4933 41.5273 40.96 40.6073 41.16C40.4207 41.2 40.234 41.2267 40.0473 41.24C39.874 41.2667 39.7007 41.28 39.5273 41.28C39.354 41.28 39.174 41.2667 38.9873 41.24C38.814 41.2267 38.634 41.2 38.4473 41.16C37.5273 40.96 36.6807 40.4933 35.9073 39.76C35.1473 39.0267 34.7673 38.04 34.7673 36.8C34.7673 35.4933 35.214 34.4 36.1073 33.52C37.014 32.6267 38.154 32.18 39.5273 32.18C40.914 32.18 42.054 32.6267 42.9473 33.52C43.8407 34.4 44.2873 35.4933 44.2873 36.8ZM43.4273 36.8C43.4273 35.76 43.0807 34.8467 42.3873 34.06C41.694 33.26 40.7407 32.86 39.5273 32.86C38.314 32.86 37.3607 33.26 36.6673 34.06C35.974 34.8467 35.6273 35.76 35.6273 36.8C35.6273 37.8 35.9807 38.6867 36.6873 39.46C37.4073 40.2333 38.354 40.62 39.5273 40.62C40.714 40.62 41.6607 40.2333 42.3673 39.46C43.074 38.6867 43.4273 37.8 43.4273 36.8ZM51.3395 44.14H45.8395V43.46H47.5395V33.16H45.8395V32.48H48.2795V34.26H48.3195C48.7462 33.54 49.2862 33.0133 49.9395 32.68C50.6062 32.3467 51.2929 32.18 51.9995 32.18C53.3862 32.18 54.4662 32.6467 55.2395 33.58C56.0262 34.5 56.4395 35.5133 56.4795 36.62C56.4795 36.66 56.4795 36.6933 56.4795 36.72C56.4795 36.7467 56.4795 36.7733 56.4795 36.8C56.4795 38.0667 56.0395 39.12 55.1595 39.96C54.2795 40.7867 53.3195 41.2267 52.2795 41.28C52.2395 41.28 52.2062 41.28 52.1795 41.28C52.1529 41.28 52.1262 41.28 52.0995 41.28C51.8595 41.28 51.6062 41.2533 51.3395 41.2C51.0729 41.16 50.7995 41.0933 50.5195 41C50.1195 40.8267 49.7195 40.5867 49.3195 40.28C48.9329 39.9733 48.5995 39.5733 48.3195 39.08H48.2795V43.46H51.3395V44.14ZM55.6195 36.82C55.6195 35.7667 55.3062 34.8467 54.6795 34.06C54.0662 33.26 53.1862 32.86 52.0395 32.86C52.0262 32.86 52.0062 32.86 51.9795 32.86C51.9662 32.86 51.9462 32.86 51.9195 32.86C50.9862 32.8867 50.1329 33.2333 49.3595 33.9C48.5862 34.5667 48.1995 35.4667 48.1995 36.6C48.1995 36.64 48.1995 36.6867 48.1995 36.74C48.1995 36.78 48.1995 36.8267 48.1995 36.88C48.2662 37.8133 48.6329 38.6733 49.2995 39.46C49.9795 40.2333 50.8595 40.62 51.9395 40.62C52.9129 40.62 53.7662 40.2733 54.4995 39.58C55.2462 38.8733 55.6195 37.9533 55.6195 36.82ZM57.2717 32.48H60.7917V33.16H59.3117L62.7717 39.84L66.5917 33.16H65.0917V32.48H68.5517V33.16H67.4517L61.5317 43.46H63.4517V44.14H57.5717V43.46H60.7117L62.3517 40.6L58.4717 33.16H57.2717V32.48ZM83.0761 37.84L83.7361 37.72C83.8694 38.7333 84.2761 39.48 84.9561 39.96C85.6494 40.44 86.5028 40.68 87.5161 40.68C88.5161 40.68 89.2628 40.5333 89.7561 40.24C90.2628 39.9333 90.6161 39.6067 90.8161 39.26C90.9494 39.02 91.0361 38.7933 91.0761 38.58C91.1161 38.3667 91.1361 38.1933 91.1361 38.06C91.1361 37.2733 90.8894 36.7533 90.3961 36.5C89.9028 36.2333 89.3628 36.0733 88.7761 36.02C88.6428 35.9933 88.5094 35.98 88.3761 35.98C88.2428 35.9667 88.1161 35.9533 87.9961 35.94C87.9428 35.94 87.8828 35.94 87.8161 35.94C87.7628 35.9267 87.7094 35.92 87.6561 35.92C86.2028 35.7867 85.1828 35.4133 84.5961 34.8C84.0094 34.1867 83.7161 33.5133 83.7161 32.78C83.7161 32.7267 83.7161 32.6733 83.7161 32.62C83.7294 32.5533 83.7361 32.4867 83.7361 32.42C83.8294 31.66 84.2228 30.9667 84.9161 30.34C85.6094 29.7133 86.5628 29.4 87.7761 29.4C88.0561 29.4 88.2961 29.42 88.4961 29.46C88.7094 29.4867 88.9028 29.52 89.0761 29.56C89.1428 29.5867 89.2028 29.6067 89.2561 29.62C89.3094 29.6333 89.3628 29.6467 89.4161 29.66C89.5228 29.6867 89.6094 29.7133 89.6761 29.74C89.7561 29.7533 89.8228 29.7667 89.8761 29.78C89.9028 29.7933 89.9294 29.8067 89.9561 29.82C89.9828 29.8333 90.0094 29.8467 90.0361 29.86C90.0628 29.8733 90.0894 29.8933 90.1161 29.92C90.1428 29.9333 90.1694 29.9467 90.1961 29.96C90.2494 29.9867 90.2894 30.0133 90.3161 30.04C90.3428 30.0533 90.3694 30.0667 90.3961 30.08C90.3961 30.08 90.3961 30.0867 90.3961 30.1C90.4094 30.1 90.4161 30.1 90.4161 30.1C90.4294 30.1 90.4361 30.1067 90.4361 30.12C90.4494 30.12 90.4628 30.12 90.4761 30.12C90.5161 30.1333 90.5428 30.1467 90.5561 30.16C90.5828 30.1733 90.6028 30.18 90.6161 30.18C90.6161 30.1933 90.6161 30.2 90.6161 30.2C90.6294 30.2 90.6361 30.2 90.6361 30.2C90.6628 30.2133 90.6894 30.2333 90.7161 30.26C90.7561 30.2733 90.7961 30.28 90.8361 30.28C90.9561 30.28 91.0561 30.2 91.1361 30.04C91.2161 29.88 91.2628 29.7067 91.2761 29.52C91.2761 29.5067 91.2761 29.5 91.2761 29.5C91.2761 29.4867 91.2761 29.4733 91.2761 29.46L91.9361 29.6C91.9094 29.6667 91.8828 29.7533 91.8561 29.86C91.8294 29.9667 91.8028 30.08 91.7761 30.2C91.7628 30.2667 91.7428 30.3333 91.7161 30.4C91.7028 30.4667 91.6894 30.54 91.6761 30.62C91.6494 30.78 91.6228 30.9467 91.5961 31.12C91.5694 31.28 91.5561 31.4133 91.5561 31.52C91.5561 31.52 91.5561 31.5267 91.5561 31.54C91.5561 31.54 91.5561 31.5467 91.5561 31.56C91.5561 31.5733 91.5561 31.5867 91.5561 31.6L91.6961 33.06L90.9761 33.12C90.8961 32.0533 90.6228 31.28 90.1561 30.8C89.6894 30.32 88.9028 30.08 87.7961 30.08C86.7294 30.08 85.9161 30.36 85.3561 30.92C84.7961 31.48 84.5161 32.1133 84.5161 32.82C84.5161 33.5267 84.7361 34.04 85.1761 34.36C85.6294 34.68 86.1228 34.9 86.6561 35.02C86.8561 35.06 87.0494 35.0933 87.2361 35.12C87.4361 35.1467 87.6228 35.1667 87.7961 35.18C87.8228 35.18 87.8494 35.1867 87.8761 35.2C87.9028 35.2 87.9294 35.2 87.9561 35.2C88.1428 35.2133 88.3428 35.2333 88.5561 35.26C88.7828 35.2733 89.0094 35.3 89.2361 35.34C89.9028 35.46 90.5161 35.7 91.0761 36.06C91.6494 36.42 91.9361 37.0733 91.9361 38.02C91.9361 38.0467 91.9361 38.0733 91.9361 38.1C91.9361 38.1267 91.9361 38.1533 91.9361 38.18C91.8828 38.98 91.5028 39.7067 90.7961 40.36C90.0894 41.0133 89.0961 41.34 87.8161 41.34C87.3228 41.34 86.8894 41.3 86.5161 41.22C86.1428 41.1533 85.8294 41.08 85.5761 41C85.4161 40.9467 85.2828 40.9 85.1761 40.86C85.0694 40.8067 84.9828 40.76 84.9161 40.72C84.9028 40.7067 84.8828 40.6933 84.8561 40.68C84.8428 40.6667 84.8294 40.6533 84.8161 40.64C84.8028 40.64 84.7894 40.64 84.7761 40.64C84.7761 40.6267 84.7694 40.62 84.7561 40.62C84.7428 40.6067 84.7228 40.6 84.6961 40.6C84.6828 40.5867 84.6628 40.5733 84.6361 40.56C84.5561 40.52 84.4894 40.4933 84.4361 40.48C84.3961 40.4667 84.3628 40.46 84.3361 40.46C84.2294 40.46 84.1428 40.52 84.0761 40.64C84.0094 40.76 83.9628 40.88 83.9361 41C83.9228 41.0667 83.9094 41.1333 83.8961 41.2C83.8961 41.2667 83.8961 41.3267 83.8961 41.38L83.2161 41.3C83.2561 41.0467 83.2828 40.8467 83.2961 40.7C83.3228 40.54 83.3428 40.3933 83.3561 40.26C83.3694 40.18 83.3761 40.1067 83.3761 40.04C83.3761 39.96 83.3761 39.8733 83.3761 39.78C83.3761 39.5267 83.3561 39.2533 83.3161 38.96C83.2761 38.6667 83.1961 38.2933 83.0761 37.84ZM96.3683 29.76H97.1083V32.48H102.348V33.16H97.1083V37.98C97.1083 38.1267 97.1083 38.2867 97.1083 38.46C97.1216 38.6333 97.1483 38.8133 97.1883 39C97.2816 39.4 97.4883 39.7733 97.8083 40.12C98.1283 40.4533 98.6816 40.62 99.4683 40.62C99.7616 40.62 100.022 40.6 100.248 40.56C100.488 40.52 100.715 40.4733 100.928 40.42C101.062 40.38 101.188 40.34 101.308 40.3C101.442 40.26 101.575 40.22 101.708 40.18C101.722 40.18 101.735 40.18 101.748 40.18C101.775 40.1667 101.795 40.1533 101.808 40.14C102.048 40.0733 102.288 39.9933 102.528 39.9C102.782 39.7933 103.082 39.6533 103.428 39.48L103.548 40.18C102.522 40.6733 101.675 40.98 101.008 41.1C100.342 41.22 99.8483 41.28 99.5283 41.28C98.6883 41.28 98.0483 41.1333 97.6083 40.84C97.1816 40.5467 96.8749 40.22 96.6883 39.86C96.5283 39.5533 96.4349 39.2667 96.4083 39C96.3816 38.7333 96.3683 38.5533 96.3683 38.46V33.16H94.9683V32.48H96.3683V29.76ZM114.72 40.32H116.52V41H113.98V39.32C113.954 39.3467 113.927 39.3733 113.9 39.4C113.874 39.4267 113.847 39.4533 113.82 39.48C113.367 39.9333 112.8 40.3467 112.12 40.72C111.44 41.0933 110.707 41.28 109.92 41.28C109.014 41.28 108.247 41.02 107.62 40.5C106.994 39.9667 106.68 39.3067 106.68 38.52C106.68 38.3733 106.694 38.2267 106.72 38.08C106.747 37.92 106.794 37.76 106.86 37.6C107.06 37.0933 107.447 36.6333 108.02 36.22C108.607 35.7933 109.44 35.58 110.52 35.58C110.747 35.58 110.994 35.5867 111.26 35.6C111.527 35.6133 111.8 35.6333 112.08 35.66C112.254 35.6733 112.434 35.6867 112.62 35.7C112.807 35.7133 112.98 35.7267 113.14 35.74C113.3 35.7667 113.447 35.7867 113.58 35.8C113.727 35.8133 113.86 35.8267 113.98 35.84V35.02C113.98 34.2867 113.74 33.7467 113.26 33.4C112.78 33.04 112.127 32.86 111.3 32.86C111.02 32.86 110.727 32.88 110.42 32.92C110.127 32.96 109.827 33.02 109.52 33.1C109.24 33.18 108.967 33.2667 108.7 33.36C108.434 33.4533 108.174 33.56 107.92 33.68L107.64 33.04C108.534 32.6533 109.287 32.4133 109.9 32.32C110.514 32.2267 110.994 32.18 111.34 32.18C112.38 32.18 113.147 32.3667 113.64 32.74C114.134 33.1133 114.454 33.5267 114.6 33.98C114.64 34.1 114.667 34.2267 114.68 34.36C114.707 34.48 114.72 34.6 114.72 34.72V40.32ZM113.98 38.34V36.54C113.9 36.5267 113.807 36.5133 113.7 36.5C113.607 36.4867 113.507 36.4733 113.4 36.46C113.28 36.4467 113.154 36.4333 113.02 36.42C112.887 36.4067 112.754 36.3933 112.62 36.38C112.314 36.34 112.014 36.3133 111.72 36.3C111.44 36.2733 111.2 36.26 111 36.26C109.987 36.26 109.22 36.4267 108.7 36.76C108.194 37.0933 107.86 37.4533 107.7 37.84C107.647 37.9733 107.607 38.1 107.58 38.22C107.554 38.34 107.54 38.4533 107.54 38.56C107.54 38.6267 107.54 38.6933 107.54 38.76C107.554 38.8267 107.567 38.8933 107.58 38.96C107.687 39.3733 107.934 39.7533 108.32 40.1C108.72 40.4467 109.254 40.62 109.92 40.62C110.067 40.62 110.214 40.6133 110.36 40.6C110.52 40.5733 110.674 40.54 110.82 40.5C111.407 40.3533 111.974 40.0867 112.52 39.7C113.08 39.3133 113.567 38.86 113.98 38.34ZM126.053 41H118.813V40.32H121.393V33.16H118.993V32.48H122.133V34.78C122.253 34.66 122.379 34.5333 122.513 34.4C122.659 34.2533 122.813 34.1133 122.973 33.98C123.359 33.6467 123.779 33.3333 124.233 33.04C124.699 32.7333 125.173 32.5 125.653 32.34C125.826 32.2867 125.999 32.2467 126.173 32.22C126.346 32.1933 126.513 32.18 126.673 32.18C126.739 32.18 126.806 32.1867 126.873 32.2C126.939 32.2 127.006 32.2067 127.073 32.22C127.406 32.2733 127.713 32.4067 127.993 32.62C128.273 32.8333 128.446 33.16 128.513 33.6L127.793 33.72C127.753 33.5067 127.679 33.3467 127.573 33.24C127.466 33.12 127.353 33.0333 127.233 32.98C127.113 32.9267 126.999 32.8933 126.893 32.88C126.786 32.8667 126.713 32.86 126.673 32.86C126.459 32.86 126.233 32.8933 125.993 32.96C125.766 33.0267 125.533 33.1133 125.293 33.22C124.959 33.38 124.626 33.58 124.293 33.82C123.959 34.0467 123.646 34.28 123.353 34.52C123.113 34.72 122.886 34.92 122.673 35.12C122.473 35.3067 122.293 35.48 122.133 35.64V40.32H126.053V41Z" fill="white"/>
<path d="M27.3552 53.99L27.0152 54.03C26.9752 53.71 26.8585 53.4733 26.6652 53.32C26.4785 53.1667 26.2752 53.0633 26.0552 53.01C25.9218 52.9767 25.7918 52.9567 25.6652 52.95C25.5385 52.9367 25.4285 52.93 25.3352 52.93C24.9485 52.93 24.6585 52.9867 24.4652 53.1C24.2718 53.2067 24.1385 53.3267 24.0652 53.46C24.0318 53.52 24.0085 53.58 23.9952 53.64C23.9818 53.6933 23.9752 53.7433 23.9752 53.79C23.9752 54.1367 24.1252 54.3667 24.4252 54.48C24.7318 54.5933 25.0685 54.6633 25.4352 54.69C25.5085 54.69 25.5818 54.6933 25.6552 54.7C25.7285 54.7 25.7985 54.7033 25.8652 54.71C25.8718 54.71 25.8752 54.71 25.8752 54.71C25.8818 54.71 25.8885 54.71 25.8952 54.71C25.9885 54.7167 26.0985 54.7267 26.2252 54.74C26.3518 54.7467 26.4852 54.7633 26.6252 54.79C26.8652 54.8433 27.0852 54.9467 27.2852 55.1C27.4918 55.2533 27.5952 55.5033 27.5952 55.85C27.5952 56.1767 27.4385 56.4733 27.1252 56.74C26.8118 57.0067 26.3185 57.14 25.6452 57.14C25.3185 57.14 25.0952 57.12 24.9752 57.08C24.8552 57.04 24.7652 56.9967 24.7052 56.95C24.6985 56.9433 24.6918 56.9367 24.6852 56.93C24.6785 56.9233 24.6718 56.92 24.6652 56.92C24.6185 56.8733 24.5552 56.8333 24.4752 56.8C24.4018 56.7667 24.2652 56.75 24.0652 56.75C23.9785 56.75 23.9218 56.7867 23.8952 56.86C23.8685 56.9333 23.8452 57.0167 23.8252 57.11C23.8252 57.11 23.8252 57.1133 23.8252 57.12C23.8252 57.1267 23.8252 57.1333 23.8252 57.14L23.4752 57.11C23.4885 57.0567 23.5018 57 23.5152 56.94C23.5285 56.88 23.5385 56.8167 23.5452 56.75C23.5518 56.69 23.5585 56.63 23.5652 56.57C23.5718 56.51 23.5752 56.4567 23.5752 56.41C23.5752 56.35 23.5685 56.2767 23.5552 56.19C23.5485 56.0967 23.5385 56.0033 23.5252 55.91C23.5185 55.8633 23.5085 55.8167 23.4952 55.77C23.4885 55.7233 23.4818 55.68 23.4752 55.64L23.8252 55.59C23.8385 55.6567 23.8585 55.7367 23.8852 55.83C23.9118 55.9233 23.9552 56.02 24.0152 56.12C24.1152 56.2933 24.2852 56.4533 24.5252 56.6C24.7652 56.74 25.1152 56.81 25.5752 56.81C26.0285 56.81 26.3685 56.75 26.5952 56.63C26.8285 56.51 26.9885 56.38 27.0752 56.24C27.1218 56.1667 27.1518 56.0967 27.1652 56.03C27.1852 55.9633 27.1952 55.9033 27.1952 55.85C27.1952 55.5633 27.0885 55.37 26.8752 55.27C26.6618 55.17 26.4252 55.11 26.1652 55.09C26.0918 55.0833 26.0185 55.08 25.9452 55.08C25.8785 55.0733 25.8118 55.07 25.7452 55.07C25.7252 55.0633 25.7018 55.06 25.6752 55.06C25.6552 55.06 25.6352 55.06 25.6152 55.06C25.5085 55.0533 25.3918 55.0467 25.2652 55.04C25.1385 55.0267 25.0118 55.01 24.8852 54.99C24.5585 54.93 24.2585 54.8167 23.9852 54.65C23.7118 54.4767 23.5752 54.1933 23.5752 53.8C23.5752 53.7533 23.5785 53.7067 23.5852 53.66C23.5918 53.6067 23.6052 53.5533 23.6252 53.5C23.6985 53.2733 23.8718 53.0667 24.1452 52.88C24.4185 52.6867 24.8185 52.59 25.3452 52.59C25.5785 52.59 25.7752 52.61 25.9352 52.65C26.0952 52.6833 26.2385 52.72 26.3652 52.76C26.3985 52.7733 26.4285 52.7867 26.4552 52.8C26.4818 52.8067 26.5085 52.8133 26.5352 52.82C26.6285 52.8533 26.6918 52.8767 26.7252 52.89C26.7652 52.8967 26.7952 52.9 26.8152 52.9C26.8885 52.9 26.9352 52.87 26.9552 52.81C26.9818 52.75 26.9985 52.6767 27.0052 52.59L27.3052 52.63C27.2852 52.7167 27.2685 52.7967 27.2552 52.87C27.2485 52.9367 27.2418 53.0033 27.2352 53.07C27.2352 53.09 27.2352 53.1133 27.2352 53.14C27.2352 53.16 27.2352 53.18 27.2352 53.2C27.2352 53.2933 27.2418 53.4033 27.2552 53.53C27.2752 53.65 27.3018 53.7767 27.3352 53.91C27.3352 53.9233 27.3352 53.9367 27.3352 53.95C27.3418 53.9633 27.3485 53.9767 27.3552 53.99ZM33.9113 54.9C33.9113 55.52 33.7179 56.0133 33.3313 56.38C32.9513 56.7467 32.5313 56.98 32.0713 57.08C31.9779 57.1 31.8846 57.1133 31.7913 57.12C31.7046 57.1333 31.6179 57.14 31.5313 57.14C31.4446 57.14 31.3546 57.1333 31.2613 57.12C31.1746 57.1133 31.0846 57.1 30.9913 57.08C30.5313 56.98 30.1079 56.7467 29.7213 56.38C29.3413 56.0133 29.1513 55.52 29.1513 54.9C29.1513 54.2467 29.3746 53.7 29.8213 53.26C30.2746 52.8133 30.8446 52.59 31.5313 52.59C32.2246 52.59 32.7946 52.8133 33.2413 53.26C33.6879 53.7 33.9113 54.2467 33.9113 54.9ZM33.4813 54.9C33.4813 54.38 33.3079 53.9233 32.9613 53.53C32.6146 53.13 32.1379 52.93 31.5313 52.93C30.9246 52.93 30.4479 53.13 30.1013 53.53C29.7546 53.9233 29.5813 54.38 29.5813 54.9C29.5813 55.4 29.7579 55.8433 30.1113 56.23C30.4713 56.6167 30.9446 56.81 31.5313 56.81C32.1246 56.81 32.5979 56.6167 32.9513 56.23C33.3046 55.8433 33.4813 55.4 33.4813 54.9ZM46.1134 53.08H45.2634V56.88C45.2634 56.9667 45.2568 57.0633 45.2434 57.17C45.2368 57.2767 45.2168 57.3867 45.1834 57.5C45.1034 57.7667 44.9334 58.01 44.6734 58.23C44.4134 58.45 43.9868 58.56 43.3934 58.56C43.2668 58.56 43.1334 58.5533 42.9934 58.54C42.8534 58.5267 42.7101 58.5067 42.5634 58.48C42.4234 58.46 42.2868 58.4333 42.1534 58.4C42.0201 58.3733 41.8934 58.3467 41.7734 58.32C41.7201 58.3067 41.6668 58.2933 41.6134 58.28C41.5668 58.2667 41.5201 58.2533 41.4734 58.24L41.5734 57.89C42.0468 58.0367 42.4068 58.1267 42.6534 58.16C42.9001 58.2 43.1234 58.22 43.3234 58.22C43.3368 58.22 43.3501 58.22 43.3634 58.22C43.3768 58.22 43.3901 58.22 43.4034 58.22C43.8701 58.22 44.2068 58.14 44.4134 57.98C44.6201 57.8267 44.7568 57.6533 44.8234 57.46C44.8501 57.3667 44.8668 57.2767 44.8734 57.19C44.8868 57.1033 44.8934 57.0267 44.8934 56.96V55.96H44.8734C44.7068 56.2067 44.4801 56.4267 44.1934 56.62C43.9134 56.8133 43.5768 56.91 43.1834 56.91C42.6368 56.91 42.1434 56.7133 41.7034 56.32C41.2634 55.92 41.0434 55.3833 41.0434 54.71C41.0434 54.09 41.2501 53.5933 41.6634 53.22C42.0834 52.84 42.5434 52.6333 43.0434 52.6C43.0701 52.5933 43.0968 52.59 43.1234 52.59C43.1501 52.59 43.1768 52.59 43.2034 52.59C43.5368 52.59 43.8534 52.6767 44.1534 52.85C44.4601 53.0167 44.7001 53.2767 44.8734 53.63H44.8934V52.74H46.1134V53.08ZM41.4734 54.71C41.4734 55.1767 41.6201 55.6033 41.9134 55.99C42.2134 56.3767 42.6401 56.57 43.1934 56.57C43.7268 56.57 44.1434 56.3867 44.4434 56.02C44.7434 55.6533 44.8934 55.25 44.8934 54.81C44.8934 54.7833 44.8934 54.7567 44.8934 54.73C44.8934 54.7033 44.8901 54.6767 44.8834 54.65C44.8501 54.2233 44.6868 53.83 44.3934 53.47C44.1068 53.11 43.7134 52.93 43.2134 52.93C42.7668 52.93 42.3634 53.0933 42.0034 53.42C41.6501 53.7467 41.4734 54.1767 41.4734 54.71ZM51.8995 54.9C51.8995 55.52 51.7062 56.0133 51.3195 56.38C50.9395 56.7467 50.5195 56.98 50.0595 57.08C49.9662 57.1 49.8729 57.1133 49.7795 57.12C49.6929 57.1333 49.6062 57.14 49.5195 57.14C49.4329 57.14 49.3429 57.1333 49.2495 57.12C49.1629 57.1133 49.0729 57.1 48.9795 57.08C48.5195 56.98 48.0962 56.7467 47.7095 56.38C47.3295 56.0133 47.1395 55.52 47.1395 54.9C47.1395 54.2467 47.3629 53.7 47.8095 53.26C48.2629 52.8133 48.8329 52.59 49.5195 52.59C50.2129 52.59 50.7829 52.8133 51.2295 53.26C51.6762 53.7 51.8995 54.2467 51.8995 54.9ZM51.4695 54.9C51.4695 54.38 51.2962 53.9233 50.9495 53.53C50.6029 53.13 50.1262 52.93 49.5195 52.93C48.9129 52.93 48.4362 53.13 48.0895 53.53C47.7429 53.9233 47.5695 54.38 47.5695 54.9C47.5695 55.4 47.7462 55.8433 48.0995 56.23C48.4595 56.6167 48.9329 56.81 49.5195 56.81C50.1129 56.81 50.5862 56.6167 50.9395 56.23C51.2929 55.8433 51.4695 55.4 51.4695 54.9ZM57.8956 54.9C57.8956 55.52 57.7023 56.0133 57.3156 56.38C56.9356 56.7467 56.5156 56.98 56.0556 57.08C55.9623 57.1 55.869 57.1133 55.7756 57.12C55.689 57.1333 55.6023 57.14 55.5156 57.14C55.429 57.14 55.339 57.1333 55.2456 57.12C55.159 57.1133 55.069 57.1 54.9756 57.08C54.5156 56.98 54.0923 56.7467 53.7056 56.38C53.3256 56.0133 53.1356 55.52 53.1356 54.9C53.1356 54.2467 53.359 53.7 53.8056 53.26C54.259 52.8133 54.829 52.59 55.5156 52.59C56.209 52.59 56.779 52.8133 57.2256 53.26C57.6723 53.7 57.8956 54.2467 57.8956 54.9ZM57.4656 54.9C57.4656 54.38 57.2923 53.9233 56.9456 53.53C56.599 53.13 56.1223 52.93 55.5156 52.93C54.909 52.93 54.4323 53.13 54.0856 53.53C53.739 53.9233 53.5656 54.38 53.5656 54.9C53.5656 55.4 53.7423 55.8433 54.0956 56.23C54.4556 56.6167 54.929 56.81 55.5156 56.81C56.109 56.81 56.5823 56.6167 56.9356 56.23C57.289 55.8433 57.4656 55.4 57.4656 54.9ZM64.3517 57H63.1317V56.04H63.1117C62.9717 56.2867 62.8017 56.4867 62.6017 56.64C62.4084 56.7933 62.2117 56.9133 62.0117 57C61.8717 57.0467 61.7351 57.08 61.6017 57.1C61.4684 57.1267 61.3417 57.14 61.2217 57.14C61.2084 57.14 61.1951 57.14 61.1817 57.14C61.1684 57.14 61.1517 57.14 61.1317 57.14C60.6117 57.1133 60.1317 56.8933 59.6917 56.48C59.2517 56.06 59.0317 55.5333 59.0317 54.9C59.0317 54.8867 59.0317 54.8733 59.0317 54.86C59.0317 54.8467 59.0317 54.83 59.0317 54.81C59.0517 54.2567 59.2551 53.75 59.6417 53.29C60.0351 52.8233 60.5784 52.59 61.2717 52.59C61.6251 52.59 61.9651 52.6733 62.2917 52.84C62.6251 53.0067 62.8984 53.27 63.1117 53.63H63.1317V51.09L61.4617 51.2L61.4217 50.86L63.5017 50.71V56.66H64.3517V57ZM59.4617 54.91C59.4617 55.4767 59.6451 55.9367 60.0117 56.29C60.3851 56.6367 60.8151 56.81 61.3017 56.81C61.8417 56.81 62.2784 56.6167 62.6117 56.23C62.9517 55.8367 63.1384 55.4067 63.1717 54.94C63.1717 54.9133 63.1717 54.89 63.1717 54.87C63.1717 54.8433 63.1717 54.82 63.1717 54.8C63.1717 54.2333 62.9784 53.7833 62.5917 53.45C62.2051 53.1167 61.7784 52.9433 61.3117 52.93C61.2984 52.93 61.2851 52.93 61.2717 52.93C61.2651 52.93 61.2584 52.93 61.2517 52.93C60.6784 52.93 60.2351 53.13 59.9217 53.53C59.6151 53.9233 59.4617 54.3833 59.4617 54.91ZM73.4139 58.57H70.6639V58.23H71.5139V53.08H70.6639V52.74H71.8839V53.63H71.9039C72.1172 53.27 72.3872 53.0067 72.7139 52.84C73.0472 52.6733 73.3906 52.59 73.7439 52.59C74.4372 52.59 74.9772 52.8233 75.3639 53.29C75.7572 53.75 75.9639 54.2567 75.9839 54.81C75.9839 54.83 75.9839 54.8467 75.9839 54.86C75.9839 54.8733 75.9839 54.8867 75.9839 54.9C75.9839 55.5333 75.7639 56.06 75.3239 56.48C74.8839 56.8933 74.4039 57.1133 73.8839 57.14C73.8639 57.14 73.8472 57.14 73.8339 57.14C73.8206 57.14 73.8072 57.14 73.7939 57.14C73.6739 57.14 73.5472 57.1267 73.4139 57.1C73.2806 57.08 73.1439 57.0467 73.0039 57C72.8039 56.9133 72.6039 56.7933 72.4039 56.64C72.2106 56.4867 72.0439 56.2867 71.9039 56.04H71.8839V58.23H73.4139V58.57ZM75.5539 54.91C75.5539 54.3833 75.3972 53.9233 75.0839 53.53C74.7772 53.13 74.3372 52.93 73.7639 52.93C73.7572 52.93 73.7472 52.93 73.7339 52.93C73.7272 52.93 73.7172 52.93 73.7039 52.93C73.2372 52.9433 72.8106 53.1167 72.4239 53.45C72.0372 53.7833 71.8439 54.2333 71.8439 54.8C71.8439 54.82 71.8439 54.8433 71.8439 54.87C71.8439 54.89 71.8439 54.9133 71.8439 54.94C71.8772 55.4067 72.0606 55.8367 72.3939 56.23C72.7339 56.6167 73.1739 56.81 73.7139 56.81C74.2006 56.81 74.6272 56.6367 74.9939 56.29C75.3672 55.9367 75.5539 55.4767 75.5539 54.91ZM80.79 57H77.17V56.66H78.46V53.08H77.26V52.74H78.83V53.89C78.89 53.83 78.9533 53.7667 79.02 53.7C79.0933 53.6267 79.17 53.5567 79.25 53.49C79.4433 53.3233 79.6533 53.1667 79.88 53.02C80.1133 52.8667 80.35 52.75 80.59 52.67C80.6767 52.6433 80.7633 52.6233 80.85 52.61C80.9367 52.5967 81.02 52.59 81.1 52.59C81.1333 52.59 81.1667 52.5933 81.2 52.6C81.2333 52.6 81.2667 52.6033 81.3 52.61C81.4667 52.6367 81.62 52.7033 81.76 52.81C81.9 52.9167 81.9867 53.08 82.02 53.3L81.66 53.36C81.64 53.2533 81.6033 53.1733 81.55 53.12C81.4967 53.06 81.44 53.0167 81.38 52.99C81.32 52.9633 81.2633 52.9467 81.21 52.94C81.1567 52.9333 81.12 52.93 81.1 52.93C80.9933 52.93 80.88 52.9467 80.76 52.98C80.6467 53.0133 80.53 53.0567 80.41 53.11C80.2433 53.19 80.0767 53.29 79.91 53.41C79.7433 53.5233 79.5867 53.64 79.44 53.76C79.32 53.86 79.2067 53.96 79.1 54.06C79 54.1533 78.91 54.24 78.83 54.32V56.66H80.79V57ZM87.8761 54.9C87.8761 55.52 87.6828 56.0133 87.2961 56.38C86.9161 56.7467 86.4961 56.98 86.0361 57.08C85.9428 57.1 85.8494 57.1133 85.7561 57.12C85.6694 57.1333 85.5828 57.14 85.4961 57.14C85.4094 57.14 85.3194 57.1333 85.2261 57.12C85.1394 57.1133 85.0494 57.1 84.9561 57.08C84.4961 56.98 84.0728 56.7467 83.6861 56.38C83.3061 56.0133 83.1161 55.52 83.1161 54.9C83.1161 54.2467 83.3394 53.7 83.7861 53.26C84.2394 52.8133 84.8094 52.59 85.4961 52.59C86.1894 52.59 86.7594 52.8133 87.2061 53.26C87.6528 53.7 87.8761 54.2467 87.8761 54.9ZM87.4461 54.9C87.4461 54.38 87.2728 53.9233 86.9261 53.53C86.5794 53.13 86.1028 52.93 85.4961 52.93C84.8894 52.93 84.4128 53.13 84.0661 53.53C83.7194 53.9233 83.5461 54.38 83.5461 54.9C83.5461 55.4 83.7228 55.8433 84.0761 56.23C84.4361 56.6167 84.9094 56.81 85.4961 56.81C86.0894 56.81 86.5628 56.6167 86.9161 56.23C87.2694 55.8433 87.4461 55.4 87.4461 54.9ZM94.3322 57H93.1122V56.04H93.0922C92.9522 56.2867 92.7822 56.4867 92.5822 56.64C92.3889 56.7933 92.1922 56.9133 91.9922 57C91.8522 57.0467 91.7155 57.08 91.5822 57.1C91.4489 57.1267 91.3222 57.14 91.2022 57.14C91.1889 57.14 91.1755 57.14 91.1622 57.14C91.1489 57.14 91.1322 57.14 91.1122 57.14C90.5922 57.1133 90.1122 56.8933 89.6722 56.48C89.2322 56.06 89.0122 55.5333 89.0122 54.9C89.0122 54.8867 89.0122 54.8733 89.0122 54.86C89.0122 54.8467 89.0122 54.83 89.0122 54.81C89.0322 54.2567 89.2355 53.75 89.6222 53.29C90.0155 52.8233 90.5589 52.59 91.2522 52.59C91.6055 52.59 91.9455 52.6733 92.2722 52.84C92.6055 53.0067 92.8789 53.27 93.0922 53.63H93.1122V51.09L91.4422 51.2L91.4022 50.86L93.4822 50.71V56.66H94.3322V57ZM89.4422 54.91C89.4422 55.4767 89.6255 55.9367 89.9922 56.29C90.3655 56.6367 90.7955 56.81 91.2822 56.81C91.8222 56.81 92.2589 56.6167 92.5922 56.23C92.9322 55.8367 93.1189 55.4067 93.1522 54.94C93.1522 54.9133 93.1522 54.89 93.1522 54.87C93.1522 54.8433 93.1522 54.82 93.1522 54.8C93.1522 54.2333 92.9589 53.7833 92.5722 53.45C92.1855 53.1167 91.7589 52.9433 91.2922 52.93C91.2789 52.93 91.2655 52.93 91.2522 52.93C91.2455 52.93 91.2389 52.93 91.2322 52.93C90.6589 52.93 90.2155 53.13 89.9022 53.53C89.5955 53.9233 89.4422 54.3833 89.4422 54.91ZM97.9683 52.74H99.1883V56.66H100.038V57H98.8183V56.34C98.5049 56.68 98.2016 56.9 97.9083 57C97.6149 57.0933 97.3749 57.14 97.1883 57.14C97.1883 57.14 97.1849 57.14 97.1783 57.14C97.1783 57.14 97.1749 57.14 97.1683 57.14C97.1083 57.14 97.0049 57.1333 96.8583 57.12C96.7183 57.1133 96.5683 57.0767 96.4083 57.01C96.2083 56.9367 96.0249 56.7967 95.8583 56.59C95.6916 56.3833 95.6083 56.0733 95.6083 55.66V53.08H94.7683V52.74H95.9783V55.75C95.9783 56.1167 96.1016 56.3867 96.3483 56.56C96.6016 56.7267 96.8849 56.81 97.1983 56.81C97.3316 56.81 97.5449 56.76 97.8383 56.66C98.1383 56.5533 98.4649 56.28 98.8183 55.84V53.08H97.9683V52.74ZM105.634 54.14L105.304 54.19C105.264 53.7833 105.098 53.4733 104.804 53.26C104.511 53.04 104.134 52.93 103.674 52.93C103.048 52.93 102.551 53.1133 102.184 53.48C101.824 53.8467 101.644 54.3133 101.644 54.88C101.644 55.4067 101.821 55.86 102.174 56.24C102.528 56.62 102.988 56.81 103.554 56.81C103.768 56.81 103.964 56.79 104.144 56.75C104.324 56.71 104.498 56.65 104.664 56.57C104.798 56.5033 104.931 56.4267 105.064 56.34C105.204 56.2533 105.351 56.1567 105.504 56.05L105.704 56.34C105.258 56.6867 104.861 56.9067 104.514 57C104.174 57.0933 103.868 57.14 103.594 57.14C102.888 57.14 102.348 56.96 101.974 56.6C101.608 56.24 101.374 55.8433 101.274 55.41C101.254 55.3233 101.238 55.2367 101.224 55.15C101.218 55.0633 101.214 54.98 101.214 54.9C101.214 54.2467 101.438 53.7 101.884 53.26C102.338 52.8133 102.908 52.59 103.594 52.59C103.681 52.59 103.844 52.6067 104.084 52.64C104.331 52.6667 104.608 52.7567 104.914 52.91C104.928 52.9167 104.941 52.9233 104.954 52.93C104.974 52.9367 104.994 52.9433 105.014 52.95C105.028 52.9567 105.041 52.9633 105.054 52.97C105.074 52.97 105.091 52.97 105.104 52.97C105.178 52.97 105.228 52.93 105.254 52.85C105.281 52.77 105.298 52.6833 105.304 52.59L105.634 52.65C105.628 52.6767 105.621 52.7033 105.614 52.73C105.608 52.75 105.601 52.7733 105.594 52.8C105.568 52.92 105.548 53.0333 105.534 53.14C105.528 53.2467 105.524 53.3267 105.524 53.38C105.524 53.4267 105.528 53.48 105.534 53.54C105.541 53.6 105.548 53.6633 105.554 53.73C105.561 53.7633 105.568 53.8 105.574 53.84C105.581 53.8733 105.588 53.9067 105.594 53.94C105.601 53.98 105.608 54.0167 105.614 54.05C105.621 54.0833 105.628 54.1133 105.634 54.14ZM107.92 51.38H108.29V52.74H110.91V53.08H108.29V55.49C108.29 55.5633 108.29 55.6433 108.29 55.73C108.297 55.8167 108.31 55.9067 108.33 56C108.377 56.2 108.48 56.3867 108.64 56.56C108.8 56.7267 109.077 56.81 109.47 56.81C109.617 56.81 109.747 56.8 109.86 56.78C109.98 56.76 110.094 56.7367 110.2 56.71C110.267 56.69 110.33 56.67 110.39 56.65C110.457 56.63 110.524 56.61 110.59 56.59C110.597 56.59 110.604 56.59 110.61 56.59C110.624 56.5833 110.634 56.5767 110.64 56.57C110.76 56.5367 110.88 56.4967 111 56.45C111.127 56.3967 111.277 56.3267 111.45 56.24L111.51 56.59C110.997 56.8367 110.574 56.99 110.24 57.05C109.907 57.11 109.66 57.14 109.5 57.14C109.08 57.14 108.76 57.0667 108.54 56.92C108.327 56.7733 108.174 56.61 108.08 56.43C108 56.2767 107.954 56.1333 107.94 56C107.927 55.8667 107.92 55.7767 107.92 55.73V53.08H107.22V52.74H107.92V51.38ZM117.297 53.99L116.957 54.03C116.917 53.71 116.8 53.4733 116.607 53.32C116.42 53.1667 116.217 53.0633 115.997 53.01C115.863 52.9767 115.733 52.9567 115.607 52.95C115.48 52.9367 115.37 52.93 115.277 52.93C114.89 52.93 114.6 52.9867 114.407 53.1C114.213 53.2067 114.08 53.3267 114.007 53.46C113.973 53.52 113.95 53.58 113.937 53.64C113.923 53.6933 113.917 53.7433 113.917 53.79C113.917 54.1367 114.067 54.3667 114.367 54.48C114.673 54.5933 115.01 54.6633 115.377 54.69C115.45 54.69 115.523 54.6933 115.597 54.7C115.67 54.7 115.74 54.7033 115.807 54.71C115.813 54.71 115.817 54.71 115.817 54.71C115.823 54.71 115.83 54.71 115.837 54.71C115.93 54.7167 116.04 54.7267 116.167 54.74C116.293 54.7467 116.427 54.7633 116.567 54.79C116.807 54.8433 117.027 54.9467 117.227 55.1C117.433 55.2533 117.537 55.5033 117.537 55.85C117.537 56.1767 117.38 56.4733 117.067 56.74C116.753 57.0067 116.26 57.14 115.587 57.14C115.26 57.14 115.037 57.12 114.917 57.08C114.797 57.04 114.707 56.9967 114.647 56.95C114.64 56.9433 114.633 56.9367 114.627 56.93C114.62 56.9233 114.613 56.92 114.607 56.92C114.56 56.8733 114.497 56.8333 114.417 56.8C114.343 56.7667 114.207 56.75 114.007 56.75C113.92 56.75 113.863 56.7867 113.837 56.86C113.81 56.9333 113.787 57.0167 113.767 57.11C113.767 57.11 113.767 57.1133 113.767 57.12C113.767 57.1267 113.767 57.1333 113.767 57.14L113.417 57.11C113.43 57.0567 113.443 57 113.457 56.94C113.47 56.88 113.48 56.8167 113.487 56.75C113.493 56.69 113.5 56.63 113.507 56.57C113.513 56.51 113.517 56.4567 113.517 56.41C113.517 56.35 113.51 56.2767 113.497 56.19C113.49 56.0967 113.48 56.0033 113.467 55.91C113.46 55.8633 113.45 55.8167 113.437 55.77C113.43 55.7233 113.423 55.68 113.417 55.64L113.767 55.59C113.78 55.6567 113.8 55.7367 113.827 55.83C113.853 55.9233 113.897 56.02 113.957 56.12C114.057 56.2933 114.227 56.4533 114.467 56.6C114.707 56.74 115.057 56.81 115.517 56.81C115.97 56.81 116.31 56.75 116.537 56.63C116.77 56.51 116.93 56.38 117.017 56.24C117.063 56.1667 117.093 56.0967 117.107 56.03C117.127 55.9633 117.137 55.9033 117.137 55.85C117.137 55.5633 117.03 55.37 116.817 55.27C116.603 55.17 116.367 55.11 116.107 55.09C116.033 55.0833 115.96 55.08 115.887 55.08C115.82 55.0733 115.753 55.07 115.687 55.07C115.667 55.0633 115.643 55.06 115.617 55.06C115.597 55.06 115.577 55.06 115.557 55.06C115.45 55.0533 115.333 55.0467 115.207 55.04C115.08 55.0267 114.953 55.01 114.827 54.99C114.5 54.93 114.2 54.8167 113.927 54.65C113.653 54.4767 113.517 54.1933 113.517 53.8C113.517 53.7533 113.52 53.7067 113.527 53.66C113.533 53.6067 113.547 53.5533 113.567 53.5C113.64 53.2733 113.813 53.0667 114.087 52.88C114.36 52.6867 114.76 52.59 115.287 52.59C115.52 52.59 115.717 52.61 115.877 52.65C116.037 52.6833 116.18 52.72 116.307 52.76C116.34 52.7733 116.37 52.7867 116.397 52.8C116.423 52.8067 116.45 52.8133 116.477 52.82C116.57 52.8533 116.633 52.8767 116.667 52.89C116.707 52.8967 116.737 52.9 116.757 52.9C116.83 52.9 116.877 52.87 116.897 52.81C116.923 52.75 116.94 52.6767 116.947 52.59L117.247 52.63C117.227 52.7167 117.21 52.7967 117.197 52.87C117.19 52.9367 117.183 53.0033 117.177 53.07C117.177 53.09 117.177 53.1133 117.177 53.14C117.177 53.16 117.177 53.18 117.177 53.2C117.177 53.2933 117.183 53.4033 117.197 53.53C117.217 53.65 117.243 53.7767 117.277 53.91C117.277 53.9233 117.277 53.9367 117.277 53.95C117.283 53.9633 117.29 53.9767 117.297 53.99ZM122.183 56.53C122.183 56.5567 122.179 56.5833 122.173 56.61C122.173 56.6367 122.169 56.6633 122.163 56.69C122.123 56.8033 122.046 56.9067 121.933 57C121.819 57.0933 121.666 57.14 121.473 57.14C121.279 57.14 121.126 57.0933 121.013 57C120.899 56.9067 120.823 56.8033 120.783 56.69C120.776 56.6633 120.769 56.6367 120.763 56.61C120.763 56.5833 120.763 56.5567 120.763 56.53C120.763 56.5033 120.763 56.4767 120.763 56.45C120.769 56.4233 120.776 56.3967 120.783 56.37C120.823 56.2567 120.899 56.1533 121.013 56.06C121.126 55.96 121.279 55.91 121.473 55.91C121.666 55.91 121.819 55.96 121.933 56.06C122.046 56.1533 122.123 56.2567 122.163 56.37C122.169 56.3967 122.173 56.4233 122.173 56.45C122.179 56.4767 122.183 56.5033 122.183 56.53ZM128.179 56.53C128.179 56.5567 128.175 56.5833 128.169 56.61C128.169 56.6367 128.165 56.6633 128.159 56.69C128.119 56.8033 128.042 56.9067 127.929 57C127.815 57.0933 127.662 57.14 127.469 57.14C127.275 57.14 127.122 57.0933 127.009 57C126.895 56.9067 126.819 56.8033 126.779 56.69C126.772 56.6633 126.765 56.6367 126.759 56.61C126.759 56.5833 126.759 56.5567 126.759 56.53C126.759 56.5033 126.759 56.4767 126.759 56.45C126.765 56.4233 126.772 56.3967 126.779 56.37C126.819 56.2567 126.895 56.1533 127.009 56.06C127.122 55.96 127.275 55.91 127.469 55.91C127.662 55.91 127.815 55.96 127.929 56.06C128.042 56.1533 128.119 56.2567 128.159 56.37C128.165 56.3967 128.169 56.4233 128.169 56.45C128.175 56.4767 128.179 56.5033 128.179 56.53Z" fill="white"/>
<defs>
<filter id="filter0_d_537_17" x="0" y="0" width="154.5" height="125.567" filterUnits="userSpaceOnUse" color-interpolation-filters="sRGB">
<feFlood flood-opacity="0" result="BackgroundImageFix"/>
<feColorMatrix in="SourceAlpha" type="matrix" values="0 0 0 0 0 0 0 0 0 0 0 0 0 0 0 0 0 0 127 0" result="hardAlpha"/>
<feOffset dy="4"/>
<feGaussianBlur stdDeviation="2"/>
<feComposite in2="hardAlpha" operator="out"/>
<feColorMatrix type="matrix" values="0 0 0 0 0 0 0 0 0 0 0 0 0 0 0 0 0 0 0.1 0"/>
<feBlend mode="normal" in2="BackgroundImageFix" result="effect1_dropShadow_537_17"/>
<feBlend mode="normal" in="SourceGraphic" in2="effect1_dropShadow_537_17" result="shape"/>
</filter>
</defs>
</svg>
